<?xml version="1.0" encoding="utf-8"?>
<!-- Generator: Adobe Illustrator 16.0.0, SVG Export Plug-In . SVG Version: 6.00 Build 0)  -->
<!DOCTYPE svg PUBLIC "-//W3C//DTD SVG 1.1//EN" "http://www.w3.org/Graphics/SVG/1.1/DTD/svg11.dtd">
<svg version="1.1" id="Layer_1" xmlns="http://www.w3.org/2000/svg" xmlns:xlink="http://www.w3.org/1999/xlink" x="0px" y="0px"
	 width="1073.947px" height="299.984px" viewBox="0 0 1073.947 299.984" enable-background="new 0 0 1073.947 299.984"
	 xml:space="preserve">
<g>
	<g>
		<path fill="#F3C536" d="M232.575,133.209c0,44.818-36.331,81.156-81.154,81.156c-44.822,0-81.158-36.338-81.158-81.156
			c0-44.822,36.336-81.16,81.158-81.16C196.244,52.049,232.575,88.387,232.575,133.209z"/>
	</g>
	<g>
		<path fill="#F5D53B" d="M151.42,199.99c-36.824,0-66.783-29.957-66.783-66.781c0-36.826,29.959-66.783,66.783-66.783
			c36.822,0,66.779,29.957,66.779,66.783C218.2,170.033,188.243,199.99,151.42,199.99z"/>
	</g>
	<g>
		<path fill="#F4D357" d="M151.42,185.611c-28.898,0-52.403-23.506-52.403-52.402c0-28.9,23.505-52.406,52.403-52.406
			c28.894,0,52.399,23.506,52.399,52.406C203.82,162.105,180.314,185.611,151.42,185.611z"/>
	</g>
	<g>
		<path fill="#F5E063" d="M151.42,171.238c-20.968,0-38.027-17.064-38.027-38.029c0-20.967,17.06-38.029,38.027-38.029
			c20.964,0,38.023,17.062,38.023,38.029C189.444,154.174,172.384,171.238,151.42,171.238z"/>
	</g>
	<g>
		<polygon fill="#FFFFFF" points="121.233,208.552 121.233,192.762 121.233,176.021 121.233,156.302 121.233,125.021 
			138.882,143.191 152.783,128.892 165.323,141.792 181.603,125.031 181.603,156.312 181.603,176.021 181.603,192.762 
			181.603,208.562 181.573,208.571 174.642,210.981 174.642,195.821 174.642,180.172 174.642,163.302 174.642,142.172 
			165.323,151.781 152.783,138.882 138.882,153.182 128.193,142.182 128.193,163.302 128.193,180.172 128.193,195.821 
			128.193,210.981 		"/>
	</g>
	<text transform="matrix(1 0 0 1 258.2876 213.8555)" fill="#414042" font-family="'nevis-Bold'" font-size="258.7849">ideate</text>
	<text transform="matrix(1 0 0 1 104.1987 274.2334)" fill="#414042" font-family="'nevis-Bold'" font-size="33.875">UC Berkeley’s First Annual Student Project Showcase</text>
</g>
</svg>
